<svg width="1225" height="1225" viewBox="0 0 1225 1225" fill="none" xmlns="http://www.w3.org/2000/svg">
<circle cx="612.5" cy="612.5" r="612.5" fill="#F34837"/>
<path d="M606 138C699.748 138 791.391 165.8 869.34 217.883C947.289 269.967 1008.04 343.996 1043.92 430.608C1079.79 517.22 1089.18 612.526 1070.89 704.473C1052.6 796.42 1007.46 880.879 941.169 947.169C874.879 1013.46 790.42 1058.6 698.473 1076.89C606.526 1095.18 511.22 1085.79 424.608 1049.92C337.996 1014.04 263.967 953.289 211.883 875.34C159.8 797.391 132 705.748 132 612L305.905 612C305.905 671.353 323.505 729.374 356.48 778.724C389.455 828.075 436.323 866.539 491.158 889.252C545.994 911.966 606.333 917.908 664.546 906.329C722.759 894.75 776.23 866.169 818.2 824.2C860.169 782.23 888.75 728.759 900.329 670.546C911.908 612.333 905.966 551.994 883.252 497.158C860.539 442.323 822.075 395.455 772.724 362.48C723.374 329.505 665.353 311.905 606 311.905L606 138Z" fill="white"/>
<path d="M767.499 761.001C738.128 791.657 700.326 812.915 658.874 822.087C617.421 831.259 574.18 827.933 534.618 812.529C495.056 797.126 460.95 770.336 436.613 735.549C412.277 700.762 398.802 659.54 397.893 617.094C396.984 574.649 408.683 532.888 431.508 497.091C454.334 461.294 487.262 433.07 526.129 415.987C564.995 398.905 608.055 393.731 649.862 401.12C691.669 408.51 730.345 428.13 761.001 457.501L682.697 539.231C668.206 525.348 649.923 516.073 630.161 512.58C610.399 509.087 590.044 511.533 571.672 519.608C553.3 527.683 537.734 541.024 526.944 557.946C516.155 574.867 510.625 594.608 511.054 614.672C511.484 634.736 517.853 654.222 529.358 670.666C540.862 687.11 556.984 699.773 575.685 707.055C594.386 714.336 614.826 715.908 634.421 711.573C654.016 707.237 671.885 697.188 685.769 682.697L767.499 761.001Z" fill="white"/>
<path d="M398.713 407.272C392.143 413.71 385.019 418.851 377.339 422.696C369.66 426.541 361.736 429.092 353.567 430.351C345.4 431.404 337.246 431.217 329.104 429.792C320.965 428.16 313.044 425.292 305.343 421.187C297.641 417.082 290.521 411.692 283.981 405.018C277.442 398.344 272.199 391.115 268.252 383.332C264.202 375.444 261.548 367.415 260.289 359.246C258.928 350.973 258.908 342.817 260.229 334.777C261.552 326.531 264.214 318.609 268.215 311.009C272.113 303.306 277.4 296.185 284.074 289.645C290.644 283.208 297.769 278.067 305.448 274.222C313.127 270.377 321.05 267.928 329.217 266.876C337.386 265.617 345.54 265.803 353.68 267.435C361.822 268.86 369.743 271.625 377.444 275.73C385.146 279.835 392.266 285.225 398.806 291.899C405.345 298.573 410.64 305.854 414.689 313.742C418.636 321.526 421.29 329.554 422.651 337.827C423.91 345.996 423.878 354.204 422.555 362.45C421.234 370.489 418.573 378.309 414.572 385.908C410.674 393.611 405.387 400.733 398.713 407.272ZM377.872 385.688C382.669 380.988 386.232 375.759 388.562 370.001C390.895 364.037 391.886 357.956 391.536 351.758C391.291 345.457 389.805 339.248 387.08 333.128C384.253 326.905 380.182 321.082 374.869 315.659C369.556 310.236 363.868 306.1 357.806 303.251C351.641 300.297 345.412 298.633 339.118 298.259C332.928 297.783 326.879 298.702 320.971 301.017C315.064 303.125 309.713 306.529 304.916 311.229C300.118 315.929 296.554 321.261 294.222 327.226C291.892 332.984 290.849 339.013 291.095 345.313C291.444 351.511 293.033 357.722 295.86 363.945C298.586 370.064 302.605 375.835 307.918 381.258C313.231 386.681 318.97 390.869 325.135 393.823C331.197 396.672 337.323 398.335 343.513 398.811C349.807 399.185 355.907 398.318 361.813 396.21C367.722 393.896 373.075 390.389 377.872 385.688Z" fill="white"/>
<path d="M304.62 555.657L193.154 495.669L172.398 534.238L146.942 520.539L203.919 414.666L229.375 428.366L208.618 466.935L320.084 526.922L304.62 555.657Z" fill="white"/>
<path d="M484.804 331.863L427.411 187.353L473.817 168.922C485.622 164.234 496.512 162.186 506.488 162.78C516.545 163.184 525.268 166.161 532.655 171.71C540.125 177.069 545.908 184.905 550.004 195.217C552.914 202.544 554.197 209.732 553.855 216.78C553.458 223.693 551.612 230.317 548.316 236.653C544.966 242.854 540.221 248.508 534.082 253.617C528.078 258.672 520.801 262.898 512.253 266.293C507.232 268.287 501.616 269.967 495.404 271.335L514.724 319.98L484.804 331.863ZM467.516 201.115L485.3 245.893C491.051 244.552 496.233 242.965 500.846 241.132C509.53 237.683 515.466 233.048 518.652 227.227C521.974 221.352 522.153 214.683 519.189 207.22C516.279 199.893 511.736 195.178 505.559 193.075C499.329 190.837 491.94 191.415 483.391 194.81L467.516 201.115Z" fill="white"/>
</svg>
