<svg width="1225" height="1225" viewBox="0 0 1225 1225" fill="none" xmlns="http://www.w3.org/2000/svg">
<circle cx="612.5" cy="612.5" r="612.5" fill="#F34837"/>
<path d="M606 138C699.748 138 791.391 165.8 869.34 217.883C947.289 269.967 1008.04 343.996 1043.92 430.608C1079.79 517.22 1089.18 612.526 1070.89 704.473C1052.6 796.42 1007.46 880.879 941.169 947.169C874.879 1013.46 790.42 1058.6 698.473 1076.89C606.526 1095.18 511.22 1085.79 424.608 1049.92C337.996 1014.04 263.967 953.289 211.883 875.34C159.8 797.391 132 705.748 132 612L305.905 612C305.905 671.353 323.505 729.374 356.48 778.724C389.455 828.075 436.323 866.539 491.158 889.252C545.994 911.966 606.333 917.908 664.546 906.329C722.759 894.75 776.23 866.169 818.2 824.2C860.169 782.23 888.75 728.759 900.329 670.546C911.908 612.333 905.966 551.994 883.252 497.158C860.539 442.323 822.075 395.455 772.724 362.48C723.374 329.505 665.353 311.905 606 311.905L606 138Z" fill="white"/>
<path d="M767.499 761.001C738.128 791.657 700.326 812.915 658.874 822.087C617.421 831.259 574.18 827.933 534.618 812.529C495.056 797.126 460.95 770.336 436.613 735.549C412.277 700.762 398.802 659.54 397.893 617.094C396.984 574.649 408.683 532.888 431.508 497.091C454.334 461.294 487.262 433.07 526.129 415.987C564.995 398.905 608.055 393.731 649.862 401.12C691.669 408.51 730.345 428.13 761.001 457.501L682.697 539.231C668.206 525.348 649.923 516.073 630.161 512.58C610.399 509.087 590.044 511.533 571.672 519.608C553.3 527.683 537.734 541.024 526.944 557.946C516.155 574.867 510.625 594.608 511.054 614.672C511.484 634.736 517.853 654.222 529.358 670.666C540.862 687.11 556.984 699.773 575.685 707.055C594.386 714.336 614.826 715.908 634.421 711.573C654.016 707.237 671.885 697.188 685.769 682.697L767.499 761.001Z" fill="white"/>
<path d="M424.393 377.856C417.719 384.396 410.442 389.277 402.563 392.501C394.686 395.518 386.671 396.83 378.519 396.437C370.369 395.837 362.6 393.229 355.214 388.611L372.359 362.613C377.904 365.561 383.521 366.599 389.208 365.728C394.999 364.754 400.242 361.969 404.934 357.371C408.272 354.101 410.63 350.666 412.008 347.067C413.389 343.261 413.736 339.651 413.048 336.237C412.464 332.721 410.844 329.607 408.188 326.895C404.816 323.454 400.804 321.968 396.154 322.437C391.401 322.801 385.44 325.166 378.272 329.533L372.193 333.342C358.27 342.079 345.889 346.341 335.05 346.127C324.11 345.809 314.706 341.635 306.838 333.605C301.933 328.599 298.428 323.04 296.322 316.927C294.217 310.814 293.403 304.56 293.881 298.164C294.361 291.561 296.13 285.127 299.188 278.86C302.144 272.489 306.333 266.647 311.756 261.334C317.909 255.305 324.769 250.832 332.335 247.915C339.902 244.998 347.605 243.89 355.444 244.589C363.283 245.289 370.69 247.945 377.663 252.559L360.831 278.25C355.492 275.304 350.186 274.269 344.911 275.145C339.639 275.814 334.969 278.141 330.902 282.126C328.087 284.885 326.094 287.962 324.923 291.357C323.755 294.545 323.464 297.794 324.05 301.104C324.637 304.207 326.106 306.958 328.456 309.357C332.033 313.007 336.199 314.443 340.957 313.666C345.611 312.784 351.316 310.261 358.069 306.097L364.147 302.287C377.967 293.653 390.245 289.39 400.981 289.5C411.821 289.507 421.38 293.734 429.656 302.181C434.867 307.5 438.576 313.371 440.782 319.794C443.092 326.116 444.006 332.681 443.523 339.49C443.041 346.299 441.217 352.991 438.053 359.567C434.786 366.038 430.233 372.134 424.393 377.856Z" fill="white"/>
<path d="M332.563 515.841C328.343 523.683 323.207 530.453 317.157 536.15C311.106 541.847 304.438 546.383 297.151 549.756C289.864 553.13 282.221 555.317 274.221 556.317C266.162 557.12 257.945 556.677 249.569 554.988C241.065 553.23 232.699 550.137 224.47 545.708C216.242 541.28 209.052 536.002 202.9 529.872C196.689 523.545 191.669 516.698 187.841 509.332C183.884 501.897 181.242 494.175 179.915 486.166C178.459 478.087 178.408 470.018 179.761 461.959C181.055 453.702 183.777 445.717 187.928 438.003C191.734 430.932 196.296 424.765 201.615 419.503C206.933 414.242 212.776 410.008 219.144 406.803C225.511 403.598 232.205 401.48 239.226 400.45C246.315 399.291 253.529 399.443 260.866 400.905L252.864 432.411C244.39 431.83 236.801 433.3 230.097 436.821C223.265 440.274 217.946 445.536 214.141 452.607C211.235 458.007 209.659 463.708 209.413 469.71C209.236 475.584 210.335 481.398 212.71 487.152C215.025 492.709 218.492 497.974 223.111 502.947C227.73 507.919 233.382 512.205 240.067 515.803C246.753 519.4 253.344 521.787 259.841 522.962C266.407 524.009 272.681 523.904 278.663 522.646C284.517 521.32 289.782 518.931 294.458 515.479C299.204 511.898 303.099 507.279 306.143 501.623C310.087 494.294 311.747 486.897 311.122 479.432C310.438 471.769 307.46 464.363 302.188 457.215L324.075 433.181C330.979 440.378 335.925 448.594 338.913 457.829C341.971 466.936 342.992 476.438 341.975 486.337C340.959 496.235 337.822 506.07 332.563 515.841Z" fill="white"/>
<path d="M516.804 312.025L459.411 167.515L489.737 155.47L547.131 299.98L516.804 312.025Z" fill="white"/>
</svg>
